<?xml version="1.0" encoding="utf-8"?>
<!-- Svg Vector Icons : http://www.onlinewebfonts.com/icon -->
<!DOCTYPE svg PUBLIC "-//W3C//DTD SVG 1.1//EN" "http://www.w3.org/Graphics/SVG/1.1/DTD/svg11.dtd">
<svg version="1.1" xmlns="http://www.w3.org/2000/svg" xmlns:xlink="http://www.w3.org/1999/xlink" x="0px" y="0px" viewBox="0 0 1000 1000" enable-background="new 0 0 1000 1000" xml:space="preserve">
<metadata> Svg Vector Icons : http://www.onlinewebfonts.com/icon </metadata>
<g><g transform="translate(0.000000,511.000000) scale(0.100000,-0.100000)"><path d="M1828.7,4855.2c-18.3-85.6-26.5-161-16.3-169.1c10.2-8.1,486.9-120.2,1061.5-246.5c572.5-126.3,1051.3-236.3,1061.5-242.5c10.2-6.1,69.3-110,134.5-230.2l116.1-216l-146.7-97.8c-189.5-126.3-472.7-403.4-607.1-599c-209.9-299.5-362.7-668.3-409.5-988.1c-38.7-258.8-36.7-254.7-87.6-254.7c-79.5,0-246.5-93.7-324-179.3c-150.8-167.1-181.3-360.6-85.6-550.1c93.7-189.5,254.7-287.3,499.2-303.6l161-12.2l10.2-63.2c12.2-75.4,478.8-5384.9,478.8-5448.1v-44.8h1648.3h1650.3l12.2,105.9c10.2,99.8,478.8,5413.4,478.8,5441.9c0,8.2,53,14.3,118.2,14.3c65.2,0,167.1,14.3,228.2,32.6c226.2,67.2,413.6,342.3,376.9,558.3c-32.6,195.6-240.4,411.6-425.8,438l-87.6,14.3l-24.5,171.1c-75.4,544-305.6,992.2-715.1,1393.6c-633.6,623.5-1489.3,841.5-2277.8,578.6c-81.5-26.5-156.9-44.8-167.1-38.7c-8.1,6.1-83.5,134.5-165,287.3c-87.6,165-165,285.2-189.5,295.4c-34.6,14.3-2231,507.3-2261.5,507.3C1867.4,5010,1849,4940.7,1828.7,4855.2z M5820,3667.3c336.2-89.6,619.4-246.5,874.1-489c350.4-332.1,578.6-784.4,619.4-1226.5l14.3-140.6H5324.9H3324.1l14.3,118.2c55,460.5,252.6,880.2,570.5,1198c297.5,299.5,613.3,470.6,1049.3,568.4C5151.7,3738.7,5610.1,3724.4,5820,3667.3z M7725,1464.9c122.2,0,175.2-197.6,75.4-295.4l-48.9-50.9H5329c-2284,0-2426.6,2-2469.4,36.7c-65.2,53-77.4,183.4-22.4,252.6c24.5,30.6,63.2,57,89.6,61.1C2957.4,1473,7152.5,1471,7725,1464.9z M7117.8,727.3c0-26.5-28.5-379-65.2-784.4l-65.2-739.6H5333H3676.6l-10.2,67.2c-6.1,34.6-34.6,336.2-63.2,666.2c-28.5,330.1-57.1,654-63.2,719.2l-12.2,116.1h1795h1795V727.3z M6946.7-1151.2c4.1-12.2-55-749.8-134.5-1640.1c-77.4-888.3-142.6-1623.8-142.6-1634s-548-16.3-1338.6-14.3l-1340.6,6.1l-134.5,1538.3c-75.4,845.5-140.6,1585.1-146.7,1644.2c-10.2,95.8-8.2,106,32.6,112.1c24.5,4.1,753.8,8.1,1619.8,10.2C6516.8-1128.7,6940.6-1132.8,6946.7-1151.2z"/></g></g>
</svg>